<svg width="58" height="59" viewBox="0 0 58 59" fill="none" xmlns="http://www.w3.org/2000/svg">
<path d="M0.0242195 0.90909H9.85377L16.6151 17.3864H16.956L23.7174 0.90909H33.5469V30H25.8197V13.1818H25.5924L19.1151 29.7727H14.456L7.97877 13.0682H7.75149V30H0.0242195V0.90909ZM57.0717 15.4545C57.0717 18.6932 56.4419 21.4252 55.1825 23.6506C53.923 25.8665 52.2232 27.5473 50.083 28.6932C47.9429 29.8295 45.5565 30.3977 42.9239 30.3977C40.2724 30.3977 37.8766 29.8248 35.7364 28.679C33.6058 27.5237 31.9107 25.8381 30.6512 23.6222C29.4012 21.3968 28.7762 18.6742 28.7762 15.4545C28.7762 12.2159 29.4012 9.48864 30.6512 7.27273C31.9107 5.04735 33.6058 3.36648 35.7364 2.23011C37.8766 1.08428 40.2724 0.511363 42.9239 0.511363C45.5565 0.511363 47.9429 1.08428 50.083 2.23011C52.2232 3.36648 53.923 5.04735 55.1825 7.27273C56.4419 9.48864 57.0717 12.2159 57.0717 15.4545ZM48.9467 15.4545C48.9467 13.7121 48.7147 12.2443 48.2506 11.0511C47.7961 9.84848 47.119 8.93939 46.2194 8.32386C45.3292 7.69886 44.2308 7.38636 42.9239 7.38636C41.6171 7.38636 40.5139 7.69886 39.6143 8.32386C38.7241 8.93939 38.047 9.84848 37.583 11.0511C37.1285 12.2443 36.9012 13.7121 36.9012 15.4545C36.9012 17.197 37.1285 18.6695 37.583 19.8722C38.047 21.0653 38.7241 21.9744 39.6143 22.5994C40.5139 23.215 41.6171 23.5227 42.9239 23.5227C44.2308 23.5227 45.3292 23.215 46.2194 22.5994C47.119 21.9744 47.7961 21.0653 48.2506 19.8722C48.7147 18.6695 48.9467 17.197 48.9467 15.4545ZM31.972 28.9091V58H25.3811L14.8697 42.7159H14.6993V58H6.80156V28.9091H13.5061L23.847 44.1364H24.0743V28.9091H31.972ZM42.9896 38C42.9139 37.053 42.5588 36.3144 41.9243 35.7841C41.2993 35.2538 40.3476 34.9886 39.0692 34.9886C38.2548 34.9886 37.5872 35.0881 37.0663 35.2869C36.555 35.4763 36.1762 35.7367 35.93 36.0682C35.6838 36.3996 35.5559 36.7784 35.5464 37.2045C35.5275 37.5549 35.5891 37.8722 35.7311 38.1562C35.8826 38.4309 36.1194 38.6818 36.4413 38.9091C36.7633 39.1269 37.1752 39.3258 37.6771 39.5057C38.179 39.6856 38.7756 39.8466 39.4669 39.9886L41.8533 40.5C43.4631 40.8409 44.841 41.2907 45.9868 41.8494C47.1326 42.4081 48.0701 43.0663 48.7993 43.8239C49.5285 44.572 50.0635 45.4148 50.4044 46.3523C50.7548 47.2898 50.9347 48.3125 50.9442 49.4205C50.9347 51.3333 50.4565 52.9527 49.5095 54.2784C48.5625 55.6042 47.2084 56.6127 45.447 57.304C43.6951 57.9953 41.5881 58.3409 39.126 58.3409C36.5976 58.3409 34.3911 57.9669 32.5067 57.2188C30.6317 56.4706 29.1733 55.3201 28.1317 53.767C27.0995 52.2045 26.5786 50.2064 26.5692 47.7727H34.0692C34.1165 48.6629 34.3391 49.411 34.7368 50.017C35.1345 50.6231 35.6932 51.0824 36.4129 51.3949C37.1421 51.7074 38.0086 51.8636 39.0124 51.8636C39.8552 51.8636 40.5607 51.7595 41.1288 51.5511C41.697 51.3428 42.1279 51.054 42.4215 50.6847C42.715 50.3153 42.8665 49.8939 42.876 49.4205C42.8665 48.9754 42.7197 48.5871 42.4357 48.2557C42.161 47.9148 41.7065 47.6117 41.072 47.3466C40.4375 47.072 39.5805 46.8163 38.501 46.5795L35.6033 45.9545C33.0275 45.3958 30.9963 44.4631 29.5095 43.1562C28.0322 41.84 27.2983 40.0455 27.3078 37.7727C27.2983 35.9261 27.7908 34.3116 28.7851 32.929C29.7889 31.5369 31.1762 30.4527 32.947 29.6761C34.7273 28.8996 36.768 28.5114 39.0692 28.5114C41.4177 28.5114 43.4489 28.9044 45.1629 29.6903C46.8769 30.4763 48.198 31.5843 49.126 33.0142C50.0635 34.4347 50.537 36.0966 50.5465 38H42.9896Z" fill="#000"/>
</svg>
